<?xml version="1.0" standalone="no"?>
<!DOCTYPE svg PUBLIC "-//W3C//DTD SVG 20010904//EN" "http://www.w3.org/TR/2001/REC-SVG-20010904/DTD/svg10.dtd">
<svg version="1.0" xmlns="http://www.w3.org/2000/svg"
    width="100.000000pt" height="200.000000pt" viewBox="0 0 1504.000000 2400.000000"
    preserveAspectRatio="xMidYMid meet">

    <g transform="translate(0.000000,2400.000000) scale(0.100000,-0.100000)"
        fill="#EB5204" stroke="none">
        <path
            d="M6545 20304 c-245 -44 -472 -149 -672 -311 -39 -32 -106 -87 -150
-122 -111 -91 -205 -133 -418 -186 -678 -171 -1246 -419 -1810 -793 -352 -233
-608 -444 -926 -761 -464 -465 -784 -909 -1069 -1486 -557 -1124 -728 -2362
-500 -3619 133 -732 390 -1377 828 -2073 103 -163 192 -332 192 -363 0 -9 -71
-116 -158 -238 -301 -423 -407 -623 -420 -794 -4 -54 -1 -74 17 -111 83 -171
747 -816 1099 -1066 302 -215 965 -571 999 -537 9 9 -67 86 -147 149 -412 326
-1104 980 -1271 1202 -98 130 -114 226 -59 344 52 110 247 379 521 721 549
685 1231 1368 1924 1925 747 601 1677 1174 2865 1764 846 421 1505 700 2306
977 148 51 292 104 320 116 43 20 46 23 24 26 -28 5 -494 -14 -725 -28 -557
-35 -1601 -45 -2140 -21 -567 25 -815 49 -1127 112 -333 66 -536 139 -674 242
-169 125 -205 308 -114 577 30 87 156 350 221 458 158 263 339 498 717 931 84
96 152 177 152 180 0 4 -52 53 -115 109 -128 114 -194 189 -271 307 -217 334
-330 776 -283 1111 14 101 51 229 94 321 97 211 294 418 544 573 168 104 494
253 582 266 111 15 135 40 74 75 -66 39 -279 50 -430 23z" />
        <path
            d="M7924 19685 c-4 -9 -4 -43 -2 -77 7 -100 51 -123 180 -97 79 16 175
48 188 64 12 15 0 19 -210 86 -140 44 -148 45 -156 24z" />
        <path
            d="M8812 19398 c-5 -7 -24 -55 -41 -107 -40 -118 -100 -212 -205 -320
-98 -101 -197 -177 -332 -254 l-102 -57 43 -117 c54 -149 128 -298 216 -434
38 -58 69 -109 69 -114 0 -4 -21 -33 -46 -64 -78 -94 -104 -160 -114 -298 -5
-65 -10 -159 -10 -210 0 -140 -15 -165 -142 -240 -93 -56 -177 -136 -234 -223
-55 -85 -76 -151 -72 -224 l3 -58 75 92 74 91 50 -58 c351 -411 939 -787 1486
-950 168 -50 208 -57 240 -40 51 26 54 50 58 595 l3 502 -212 0 -212 0 6 288
c4 158 10 427 13 598 l7 311 171 6 c94 4 258 10 364 13 l192 7 0 261 0 261
-193 127 c-317 209 -658 405 -962 555 -154 75 -175 82 -193 61z" />
        <path
            d="M11155 19029 c-302 -4 -568 -12 -590 -16 -36 -8 -40 -12 -47 -48 -5
-22 -11 -172 -14 -332 l-7 -293 1997 0 1996 0 0 350 0 350 -1392 -2 c-766 -1
-1640 -5 -1943 -9z" />
        <path d="M9750 17520 l0 -350 1995 0 1995 0 0 350 0 350 -1995 0 -1995 0 0
-350z" />
        <path d="M10170 16350 l0 -350 1995 0 1995 0 0 350 0 350 -1995 0 -1995 0 0
-350z" />
        <path
            d="M12090 15004 c-281 -77 -830 -262 -1213 -408 -889 -339 -1609 -689
-2346 -1140 -459 -280 -581 -365 -581 -402 0 -38 103 -49 633 -64 545 -16 707
-30 955 -86 457 -102 973 -337 1382 -628 233 -165 414 -331 603 -551 66 -77
126 -146 132 -153 10 -11 46 -4 201 42 358 104 661 172 949 211 105 14 198 29
208 33 14 6 -14 21 -105 59 -209 87 -348 123 -649 167 -145 21 -159 27 -159
70 0 45 28 181 95 456 147 612 195 971 195 1476 0 287 -9 440 -40 702 -23 182
-37 227 -75 242 -37 14 -45 13 -185 -26z" />
        <path
            d="M7983 11529 c-499 -23 -1027 -118 -1555 -278 -866 -264 -1647 -702
-2564 -1438 -330 -265 -564 -477 -564 -509 0 -24 582 -627 1776 -1839 346
-352 840 -853 1096 -1113 257 -261 469 -474 473 -474 13 0 2769 2812 3736
3812 619 641 836 878 826 903 -8 21 -108 94 -224 164 -131 79 -574 298 -773
383 -571 243 -1086 359 -1740 390 -224 11 -250 11 -487 -1z" />
        <path
            d="M9165 7306 c-167 -28 -365 -98 -496 -176 -186 -110 -410 -338 -561
-570 -121 -184 -230 -417 -303 -642 -78 -239 -104 -414 -112 -748 -12 -500 42
-812 192 -1111 74 -147 140 -243 233 -341 227 -237 489 -338 846 -325 406 14
673 182 963 607 128 188 152 218 173 222 13 3 15 -28 15 -227 0 -202 2 -235
19 -273 47 -108 144 -122 220 -31 60 71 156 302 246 589 84 268 174 470 210
470 18 0 41 -47 50 -106 6 -33 15 -194 20 -359 6 -186 15 -327 24 -372 15 -72
45 -142 75 -177 29 -33 91 -57 161 -63 61 -5 75 -3 124 21 68 33 124 101 192
230 26 50 58 111 72 135 l25 43 72 -142 c54 -106 85 -155 126 -196 99 -101
237 -147 370 -125 206 34 373 161 554 421 98 140 134 182 148 173 11 -7 4
-138 -23 -433 -40 -426 -53 -691 -54 -1050 0 -379 5 -432 54 -562 46 -124 166
-212 286 -211 98 1 178 43 284 151 133 136 217 310 255 527 43 248 40 691 -6
905 -43 203 -43 208 -31 268 7 32 64 163 136 311 128 263 176 382 176 429 l-1
27 -28 -33 c-16 -18 -56 -89 -90 -156 -146 -293 -309 -496 -398 -496 -74 0
-82 -59 -29 -215 46 -134 66 -293 73 -590 6 -251 -6 -473 -32 -599 -8 -38 -33
-106 -55 -151 -57 -119 -111 -155 -176 -120 -62 33 -84 146 -84 435 0 355 60
1260 96 1460 29 162 43 200 241 645 265 594 436 1143 500 1605 11 80 17 193
17 315 1 183 0 192 -24 239 -35 70 -68 91 -138 90 -72 -2 -128 -21 -272 -92
-219 -108 -291 -213 -375 -542 -53 -209 -118 -613 -175 -1095 -75 -636 -92
-710 -226 -964 -126 -239 -220 -348 -359 -417 -99 -49 -141 -49 -226 -2 -91
51 -129 97 -129 155 1 63 54 140 238 345 209 231 306 419 306 588 0 103 -26
171 -85 225 -47 42 -72 49 -152 43 -111 -9 -244 -93 -383 -241 -164 -175 -235
-298 -364 -632 -89 -230 -117 -290 -160 -339 -38 -42 -77 -53 -119 -31 -78 40
-85 96 -65 530 16 342 14 517 -7 589 -15 54 -55 91 -106 99 -144 23 -277 -136
-433 -518 -115 -282 -151 -360 -175 -390 -21 -25 -26 -28 -35 -15 -15 23 -13
69 20 405 90 923 145 1381 225 1865 81 493 79 477 61 506 -9 13 -23 24 -32 24
-33 0 -101 -46 -168 -114 -206 -208 -223 -283 -341 -1531 -49 -513 -93 -800
-151 -974 -60 -183 -170 -355 -328 -514 -134 -136 -259 -214 -406 -254 -96
-26 -316 -23 -425 5 -250 67 -454 241 -588 500 -68 133 -100 217 -137 365 -55
217 -65 314 -65 627 0 288 7 382 45 610 102 605 357 1028 695 1155 101 38 151
47 275 46 200 -1 340 -52 445 -162 104 -109 155 -270 155 -495 0 -218 -45
-387 -140 -522 -27 -38 -93 -109 -147 -158 -133 -121 -213 -201 -213 -214 0
-36 138 -36 267 0 151 42 257 107 380 233 208 213 315 497 300 796 -7 146 -26
220 -87 346 -80 164 -180 267 -343 351 -167 86 -408 122 -602 90z m4505 -436
c59 -31 52 -370 -15 -771 -51 -301 -127 -611 -225 -909 -129 -392 -180 -470
-180 -279 0 142 53 607 126 1104 97 663 184 914 294 855z m-1520 -1885 c16 -8
42 -36 57 -63 69 -117 10 -340 -146 -547 -21 -28 -55 -59 -75 -70 -36 -19 -38
-19 -51 -2 -21 28 -27 151 -15 291 18 213 44 317 87 357 55 52 92 60 143 34z" />
        <path
            d="M2013 7290 c-428 -112 -878 -525 -1158 -1063 -161 -309 -269 -685
-311 -1077 -24 -227 -15 -563 19 -760 62 -350 166 -592 329 -765 121 -129 239
-196 400 -229 244 -50 501 29 706 219 39 36 111 118 160 183 97 127 128 162
141 162 12 0 37 -64 60 -160 35 -141 84 -218 176 -281 146 -100 338 -62 507
99 81 78 113 123 104 147 -6 16 -35 10 -143 -29 -67 -25 -75 -25 -107 -12 -47
20 -114 89 -137 142 -52 116 -49 266 15 929 44 451 56 622 47 666 -7 32 -10
34 -46 33 -33 -1 -46 -9 -85 -52 -50 -56 -76 -72 -115 -72 -104 0 -138 -102
-190 -560 -32 -283 -55 -426 -90 -543 -63 -218 -169 -345 -371 -446 -306 -153
-592 -67 -779 233 -53 86 -118 236 -142 332 -26 100 -26 722 0 934 46 375 147
720 299 1024 176 351 422 635 611 705 122 45 321 45 440 1 175 -66 294 -351
273 -655 -17 -249 -96 -364 -332 -488 -135 -70 -204 -118 -204 -142 0 -8 12
-23 27 -32 37 -25 230 -24 322 1 300 81 541 344 607 663 22 106 15 282 -16
373 -39 115 -80 180 -170 271 -129 130 -280 210 -475 250 -119 25 -276 24
-372 -1z" />
        <path
            d="M3862 7251 c-72 -57 -207 -212 -238 -272 -33 -66 -49 -121 -68 -234
-61 -363 -177 -1686 -205 -2335 -14 -310 -2 -385 87 -555 74 -141 140 -181
278 -173 150 10 225 87 365 373 53 110 105 209 113 220 15 19 17 19 30 2 7
-10 19 -52 25 -95 6 -42 15 -110 21 -149 31 -223 160 -363 332 -363 143 0 226
78 356 336 78 154 76 152 96 48 40 -199 148 -318 337 -370 30 -8 102 -17 162
-21 l107 -6 73 36 c135 68 301 233 379 377 56 102 115 156 248 225 130 68 198
125 234 197 27 53 34 98 16 98 -5 0 -56 -44 -113 -98 -118 -112 -157 -134
-187 -107 -28 26 -38 97 -44 335 -10 366 -51 496 -178 565 -46 25 -66 30 -151
33 -122 5 -167 -10 -230 -76 -52 -56 -84 -133 -100 -243 -23 -158 37 -323 182
-504 126 -156 137 -191 106 -340 -28 -135 -124 -282 -206 -315 -63 -27 -140
16 -215 118 -56 75 -83 149 -96 263 -18 149 0 327 57 559 49 200 55 250 30
250 -54 0 -159 -85 -225 -183 -45 -68 -158 -306 -224 -475 -92 -235 -145 -325
-209 -355 -33 -16 -38 -16 -77 -1 -54 22 -95 79 -111 152 -15 73 -6 599 15
907 48 669 102 1250 166 1765 35 283 46 430 33 430 -45 0 -284 -224 -320 -300
-57 -119 -131 -689 -223 -1725 -59 -656 -154 -997 -330 -1177 -36 -38 -74 -68
-85 -68 -23 0 -98 77 -124 127 -60 119 -59 320 5 1168 46 609 93 1093 149
1530 45 356 50 417 36 443 -6 12 -16 22 -20 22 -5 0 -31 -18 -59 -39z m1987
-2208 c54 -66 101 -248 101 -393 0 -90 -5 -110 -30 -110 -45 0 -114 113 -151
246 -16 59 -20 98 -17 169 4 131 37 161 97 88z" />
        <path
            d="M7162 2725 c-29 -37 -37 -178 -24 -415 11 -187 27 -289 50 -312 17
-17 38 40 57 153 21 119 48 173 91 177 46 4 76 -38 103 -140 32 -124 54 -180
74 -192 22 -14 32 1 47 67 32 151 -15 299 -112 348 -35 18 -52 20 -109 15 -84
-9 -84 -9 -93 138 -6 108 -25 175 -52 183 -7 2 -21 -8 -32 -22z" />
        <path
            d="M6530 2674 c-19 -22 -16 -70 5 -94 22 -25 37 -25 58 -2 23 25 21 64
-3 90 -24 26 -43 28 -60 6z" />
        <path
            d="M10969 2644 c-17 -21 0 -49 31 -49 31 0 48 28 31 49 -8 9 -21 16 -31
16 -10 0 -23 -7 -31 -16z" />
        <path
            d="M2811 2611 c-49 -13 -67 -34 -53 -65 10 -22 36 -35 103 -50 43 -9 53
-47 69 -263 11 -144 27 -224 46 -230 19 -6 34 46 45 150 31 306 29 302 137
355 90 44 105 71 50 92 -39 15 -347 23 -397 11z" />
        <path
            d="M4414 2494 c-51 -122 -38 -279 34 -420 28 -55 85 -104 122 -104 30 0
90 43 90 64 0 7 -22 32 -49 54 -98 83 -93 175 14 237 28 17 12 45 -74 128 -91
89 -114 96 -137 41z" />
        <path
            d="M11227 2492 c-7 -17 -11 -84 -11 -177 1 -240 30 -315 135 -346 53
-16 92 2 97 45 4 32 -15 57 -70 92 -71 45 -59 125 27 184 25 17 45 35 45 39 0
19 -65 94 -116 135 -74 57 -92 62 -107 28z" />
        <path
            d="M6768 2483 c-15 -37 -15 -269 1 -363 6 -41 19 -85 27 -97 35 -54 152
-75 185 -34 26 32 8 75 -46 107 -88 51 -81 138 15 199 22 14 40 30 40 36 0 16
-130 149 -162 165 -38 20 -47 18 -60 -13z" />
        <path
            d="M8849 2483 c-7 -18 -9 -89 -6 -198 7 -246 27 -297 125 -315 20 -3 52
-3 69 2 62 16 51 88 -18 124 -39 20 -72 89 -63 132 8 39 28 57 82 71 26 7 42
18 42 27 0 35 -168 184 -207 184 -7 0 -18 -12 -24 -27z" />
        <path
            d="M4019 2421 c-131 -82 -117 -170 37 -246 149 -73 148 -90 -5 -81 -126
8 -146 1 -115 -41 32 -42 103 -75 162 -75 101 1 190 70 177 137 -7 39 -58 91
-119 122 -59 30 -96 65 -96 91 0 29 36 33 99 12 66 -24 100 -25 107 -6 10 27
-18 58 -79 87 -78 36 -111 36 -168 0z" />
        <path
            d="M4935 2421 c-73 -42 -121 -99 -133 -157 -29 -134 53 -265 179 -289
77 -14 183 42 177 94 -3 26 -4 26 -77 22 -76 -3 -156 20 -148 43 2 6 38 20 79
32 123 34 178 77 180 142 1 41 -23 76 -75 109 -63 40 -120 41 -182 4z m122
-91 c7 0 17 -9 23 -20 17 -32 -36 -80 -87 -80 -44 0 -63 14 -63 45 0 37 50 68
95 59 11 -2 25 -4 32 -4z" />
        <path
            d="M6017 2432 c-9 -10 -33 -52 -53 -93 -20 -40 -45 -86 -56 -101 -36
-51 -78 -27 -78 43 0 44 -35 114 -70 139 -15 11 -30 20 -33 20 -23 0 -6 -149
29 -263 29 -91 79 -193 99 -201 23 -8 64 33 95 94 16 32 41 68 56 79 24 19 30
20 48 8 19 -13 50 -58 98 -146 26 -47 69 -43 107 9 62 86 125 362 93 409 -24
35 -79 -44 -128 -186 -10 -29 -21 -53 -24 -53 -3 0 -28 46 -55 102 -48 97 -88
158 -104 158 -4 0 -15 -8 -24 -18z" />
        <path
            d="M7855 2438 c-66 -36 -165 -165 -165 -214 0 -50 36 -135 77 -184 37
-43 100 -79 138 -80 71 0 150 52 186 123 61 119 16 292 -90 347 -44 22 -114
26 -146 8z m76 -118 c45 -25 63 -117 35 -184 -15 -36 -43 -51 -76 -41 -61 19
-73 181 -17 220 25 18 32 18 58 5z" />
        <path
            d="M6531 2427 c-17 -21 -33 -213 -26 -307 14 -177 65 -198 95 -40 16 86
13 273 -6 320 -17 42 -41 52 -63 27z" />
        <path
            d="M8274 2419 c-39 -43 -17 -321 29 -377 36 -44 138 -65 275 -56 l104 7
-4 186 c-3 131 -8 194 -18 214 -27 56 -51 16 -84 -143 -27 -133 -47 -166 -100
-164 -69 2 -95 48 -107 190 -11 148 -45 198 -95 143z" />
        <path
            d="M9616 2424 c-29 -29 -12 -139 44 -288 33 -86 61 -130 92 -147 27 -15
52 9 94 94 53 104 82 103 161 -2 56 -75 94 -107 117 -98 35 14 114 238 131
372 4 37 2 55 -9 70 -24 32 -46 9 -89 -91 -41 -97 -64 -128 -90 -118 -16 6
-27 26 -80 147 -45 100 -82 90 -147 -39 -40 -80 -48 -89 -75 -92 -39 -4 -53
20 -62 99 -9 89 -49 132 -87 93z" />
        <path
            d="M3523 2420 c-55 -13 -107 -46 -140 -89 -59 -76 -56 -164 8 -260 60
-90 100 -102 302 -85 l77 7 0 218 0 219 -107 -1 c-60 -1 -122 -4 -140 -9z
m101 -91 c30 -14 46 -55 46 -119 0 -115 -49 -155 -136 -114 -89 42 -83 189 9
229 40 18 50 18 81 4z" />
        <path
            d="M10505 2423 c-96 -25 -135 -90 -135 -223 0 -69 4 -94 23 -130 39 -77
59 -85 211 -84 73 0 140 3 149 7 15 6 17 25 16 149 -1 165 -10 253 -28 271
-12 12 -196 21 -236 10z m119 -94 c30 -14 46 -55 46 -119 0 -117 -61 -163
-148 -110 -40 25 -55 61 -49 123 5 52 26 83 72 103 37 16 48 17 79 3z" />
        <path
            d="M10958 2399 c-52 -30 -47 -293 7 -376 24 -36 62 -50 81 -31 23 22 33
129 23 230 -15 148 -54 211 -111 177z" />
    </g>
</svg>