<svg width="57" height="7" viewBox="0 0 57 7" fill="none" xmlns="http://www.w3.org/2000/svg">
<path d="M2.376 2.712C2.376 2.88 2.344 2.996 2.28 3.06C2.216 3.124 2.122 3.156 1.998 3.156H1.566C1.55 3.26 1.508 3.508 1.44 3.9C1.304 4.644 1.236 5.206 1.236 5.586C1.236 5.966 1.264 6.218 1.32 6.342C1.092 6.258 0.93 6.132 0.834 5.964C0.738 5.792 0.69 5.584 0.69 5.34C0.69 5.096 0.704 4.866 0.732 4.65C0.764 4.43 0.808 4.174 0.864 3.882C0.92 3.59 0.96 3.356 0.984 3.18C0.756 3.212 0.532 3.276 0.312 3.372C0.304 3.308 0.3 3.25 0.3 3.198C0.3 3.006 0.364 2.878 0.492 2.814C0.62 2.746 0.804 2.712 1.044 2.712C1.072 2.416 1.086 2.196 1.086 2.052C1.086 1.904 1.084 1.786 1.08 1.698C1.08 1.61 1.08 1.544 1.08 1.5C1.264 1.528 1.406 1.61 1.506 1.746C1.606 1.878 1.656 2.06 1.656 2.292C1.656 2.412 1.646 2.558 1.626 2.73C1.974 2.73 2.22 2.672 2.364 2.556C2.372 2.612 2.376 2.664 2.376 2.712ZM3.82045 3.654C3.70445 3.854 3.61445 4.06 3.55045 4.272C3.49045 4.48 3.46045 4.68 3.46045 4.872C3.46045 5.064 3.50245 5.228 3.58645 5.364C3.67445 5.496 3.79845 5.562 3.95845 5.562C4.18245 5.562 4.39245 5.44 4.58845 5.196C4.78445 4.948 4.93445 4.65 5.03845 4.302C5.14645 3.95 5.20045 3.626 5.20045 3.33C5.20045 3.03 5.18845 2.784 5.16445 2.592C5.26045 2.584 5.32045 2.58 5.34445 2.58C5.68445 2.58 5.85445 2.754 5.85445 3.102C5.85445 3.178 5.80645 3.488 5.71045 4.032C5.61445 4.572 5.56645 5.006 5.56645 5.334C5.56645 5.658 5.62845 5.946 5.75245 6.198C5.50045 6.146 5.31645 6.036 5.20045 5.868C5.08845 5.696 5.03245 5.45 5.03245 5.13C5.03245 5.074 5.04045 4.966 5.05645 4.806C4.94845 5.186 4.75845 5.492 4.48645 5.724C4.21445 5.956 3.94645 6.072 3.68245 6.072C3.42245 6.072 3.21245 5.974 3.05245 5.778C2.89245 5.578 2.81245 5.304 2.81245 4.956C2.81245 4.604 2.87645 4.262 3.00445 3.93C3.13645 3.594 3.33245 3.304 3.59245 3.06C3.85645 2.816 4.15045 2.694 4.47445 2.694C4.61445 2.694 4.76845 2.722 4.93645 2.778C4.70045 2.838 4.48445 2.948 4.28845 3.108C4.09245 3.268 3.93645 3.45 3.82045 3.654ZM8.18105 2.832C8.04905 2.832 7.92905 2.874 7.82105 2.958C7.71705 3.042 7.66505 3.158 7.66505 3.306C7.66505 3.45 7.71305 3.586 7.80905 3.714C7.90905 3.842 8.02905 3.956 8.16905 4.056C8.30905 4.156 8.45105 4.258 8.59505 4.362C8.93105 4.61 9.09905 4.876 9.09905 5.16C9.09905 5.444 8.98505 5.676 8.75705 5.856C8.52905 6.032 8.23705 6.12 7.88105 6.12C7.52905 6.12 7.25505 6.05 7.05905 5.91C6.86705 5.77 6.77105 5.606 6.77105 5.418C6.77105 5.226 6.81905 5.076 6.91505 4.968C7.01105 4.86 7.12705 4.806 7.26305 4.806C7.33505 4.806 7.40305 4.822 7.46705 4.854C7.37905 4.966 7.33505 5.098 7.33505 5.25C7.33505 5.402 7.38105 5.53 7.47305 5.634C7.56905 5.738 7.69905 5.79 7.86305 5.79C8.03105 5.79 8.17305 5.748 8.28905 5.664C8.40505 5.576 8.46305 5.466 8.46305 5.334C8.46305 5.202 8.42905 5.086 8.36105 4.986C8.29305 4.886 8.20705 4.8 8.10305 4.728C8.00305 4.656 7.89305 4.576 7.77305 4.488C7.65305 4.4 7.54105 4.314 7.43705 4.23C7.33705 4.142 7.25305 4.034 7.18505 3.906C7.11705 3.774 7.08305 3.63 7.08305 3.474C7.08305 3.19 7.19105 2.958 7.40705 2.778C7.62305 2.594 7.89505 2.502 8.22305 2.502C8.55105 2.502 8.79105 2.57 8.94305 2.706C9.09505 2.842 9.17105 2.996 9.17105 3.168C9.17105 3.336 9.12905 3.476 9.04505 3.588C8.96105 3.696 8.85305 3.75 8.72105 3.75C8.65705 3.75 8.58305 3.732 8.49905 3.696C8.60305 3.568 8.65505 3.43 8.65505 3.282C8.65505 3.134 8.60905 3.022 8.51705 2.946C8.42905 2.87 8.31705 2.832 8.18105 2.832ZM12.0508 2.712C12.0508 2.88 12.0188 2.996 11.9548 3.06C11.8908 3.124 11.7968 3.156 11.6728 3.156H11.2408C11.2248 3.26 11.1828 3.508 11.1148 3.9C10.9788 4.644 10.9108 5.206 10.9108 5.586C10.9108 5.966 10.9388 6.218 10.9948 6.342C10.7668 6.258 10.6048 6.132 10.5088 5.964C10.4128 5.792 10.3648 5.584 10.3648 5.34C10.3648 5.096 10.3788 4.866 10.4068 4.65C10.4388 4.43 10.4828 4.174 10.5388 3.882C10.5948 3.59 10.6348 3.356 10.6588 3.18C10.4308 3.212 10.2068 3.276 9.98677 3.372C9.97877 3.308 9.97477 3.25 9.97477 3.198C9.97477 3.006 10.0388 2.878 10.1668 2.814C10.2948 2.746 10.4788 2.712 10.7188 2.712C10.7468 2.416 10.7608 2.196 10.7608 2.052C10.7608 1.904 10.7588 1.786 10.7548 1.698C10.7548 1.61 10.7548 1.544 10.7548 1.5C10.9388 1.528 11.0808 1.61 11.1808 1.746C11.2808 1.878 11.3308 2.06 11.3308 2.292C11.3308 2.412 11.3208 2.558 11.3008 2.73C11.6488 2.73 11.8948 2.672 12.0388 2.556C12.0468 2.612 12.0508 2.664 12.0508 2.712ZM14.1672 2.85C13.9272 2.85 13.7232 2.988 13.5552 3.264C13.3912 3.54 13.2812 3.864 13.2252 4.236H13.3932C13.6052 4.236 13.7892 4.206 13.9452 4.146C14.1012 4.086 14.2212 4.008 14.3052 3.912C14.4652 3.728 14.5452 3.52 14.5452 3.288C14.5452 3.156 14.5132 3.05 14.4492 2.97C14.3892 2.89 14.2952 2.85 14.1672 2.85ZM15.0132 5.28C14.8292 5.58 14.6272 5.79 14.4072 5.91C14.1872 6.03 13.9312 6.09 13.6392 6.09C13.3512 6.09 13.0992 5.962 12.8832 5.706C12.6672 5.45 12.5592 5.09 12.5592 4.626C12.5592 4.098 12.7012 3.626 12.9852 3.21C13.1252 3.01 13.3072 2.848 13.5312 2.724C13.7592 2.6 14.0092 2.538 14.2812 2.538C14.8812 2.538 15.1812 2.828 15.1812 3.408C15.1812 3.756 15.0452 4.03 14.7732 4.23C14.5052 4.426 14.1932 4.524 13.8372 4.524C13.6012 4.524 13.3892 4.502 13.2012 4.458C13.1972 4.498 13.1952 4.56 13.1952 4.644C13.1952 5.352 13.4052 5.706 13.8252 5.706C14.2212 5.706 14.5432 5.51 14.7912 5.118C14.9392 5.138 15.0132 5.192 15.0132 5.28ZM21.0436 6C21.0276 6.012 20.9756 6.028 20.8876 6.048C20.8036 6.072 20.7236 6.084 20.6476 6.084C20.5756 6.084 20.5336 6.054 20.5216 5.994C20.4656 5.746 20.3996 5.358 20.3236 4.83C20.2476 4.302 20.1956 3.958 20.1676 3.798C20.0876 3.978 19.9176 4.332 19.6576 4.86C19.4016 5.388 19.2276 5.768 19.1356 6C19.1156 6.016 19.0716 6.034 19.0036 6.054C18.9396 6.074 18.8716 6.084 18.7996 6.084C18.7276 6.084 18.6856 6.054 18.6736 5.994C18.6136 5.738 18.5496 5.356 18.4816 4.848C18.4136 4.336 18.3416 3.89 18.2656 3.51C18.1896 3.126 18.0936 2.836 17.9776 2.64C18.1296 2.536 18.2556 2.484 18.3556 2.484C18.4596 2.484 18.5436 2.508 18.6076 2.556C18.6756 2.6 18.7296 2.672 18.7696 2.772C18.8136 2.868 18.8476 2.976 18.8716 3.096C18.8956 3.212 18.9156 3.362 18.9316 3.546C18.9476 3.726 18.9616 3.9 18.9736 4.068C19.0096 4.604 19.0476 5.038 19.0876 5.37C19.5476 4.302 19.8456 3.512 19.9816 3C19.9376 2.872 19.8856 2.752 19.8256 2.64C19.9776 2.536 20.1036 2.484 20.2036 2.484C20.3036 2.484 20.3856 2.508 20.4496 2.556C20.5136 2.6 20.5656 2.672 20.6056 2.772C20.6456 2.868 20.6776 2.976 20.7016 3.096C20.7296 3.212 20.7516 3.362 20.7676 3.546C20.7876 3.726 20.8036 3.9 20.8156 4.068C20.8476 4.536 20.8876 4.97 20.9356 5.37C21.1356 4.902 21.2876 4.544 21.3916 4.296C21.4956 4.044 21.6076 3.724 21.7276 3.336C21.8476 2.948 21.9096 2.638 21.9136 2.406C22.1616 2.526 22.2856 2.72 22.2856 2.988C22.2856 3.168 22.2136 3.414 22.0696 3.726C21.9296 4.038 21.7516 4.412 21.5356 4.848C21.3196 5.28 21.1556 5.664 21.0436 6ZM23.777 6.09C23.549 6.01 23.389 5.888 23.297 5.724C23.209 5.556 23.165 5.354 23.165 5.118C23.165 4.882 23.197 4.544 23.261 4.104C23.325 3.664 23.357 3.322 23.357 3.078C23.357 2.834 23.345 2.646 23.321 2.514C23.393 2.506 23.451 2.502 23.495 2.502C23.675 2.502 23.805 2.542 23.885 2.622C23.965 2.702 24.005 2.834 24.005 3.018C24.005 3.078 23.955 3.394 23.855 3.966C23.759 4.534 23.709 5.004 23.705 5.376C23.705 5.744 23.729 5.982 23.777 6.09ZM23.867 1.908C23.531 1.908 23.363 1.794 23.363 1.566C23.363 1.486 23.393 1.374 23.453 1.23C23.541 1.214 23.617 1.206 23.681 1.206C24.017 1.206 24.185 1.32 24.185 1.548C24.185 1.628 24.155 1.74 24.095 1.884C24.007 1.9 23.931 1.908 23.867 1.908ZM27.0367 2.712C27.0367 2.88 27.0047 2.996 26.9407 3.06C26.8767 3.124 26.7827 3.156 26.6587 3.156H26.2267C26.2107 3.26 26.1687 3.508 26.1007 3.9C25.9647 4.644 25.8967 5.206 25.8967 5.586C25.8967 5.966 25.9247 6.218 25.9807 6.342C25.7527 6.258 25.5907 6.132 25.4947 5.964C25.3987 5.792 25.3507 5.584 25.3507 5.34C25.3507 5.096 25.3647 4.866 25.3927 4.65C25.4247 4.43 25.4687 4.174 25.5247 3.882C25.5807 3.59 25.6207 3.356 25.6447 3.18C25.4167 3.212 25.1927 3.276 24.9727 3.372C24.9647 3.308 24.9607 3.25 24.9607 3.198C24.9607 3.006 25.0247 2.878 25.1527 2.814C25.2807 2.746 25.4647 2.712 25.7047 2.712C25.7327 2.416 25.7467 2.196 25.7467 2.052C25.7467 1.904 25.7447 1.786 25.7407 1.698C25.7407 1.61 25.7407 1.544 25.7407 1.5C25.9247 1.528 26.0667 1.61 26.1667 1.746C26.2667 1.878 26.3167 2.06 26.3167 2.292C26.3167 2.412 26.3067 2.558 26.2867 2.73C26.6347 2.73 26.8807 2.672 27.0247 2.556C27.0327 2.612 27.0367 2.664 27.0367 2.712ZM28.3432 4.146C28.4752 3.694 28.6772 3.314 28.9492 3.006C29.2252 2.694 29.4832 2.538 29.7232 2.538C29.9632 2.538 30.1332 2.612 30.2332 2.76C30.3332 2.904 30.3832 3.102 30.3832 3.354C30.3832 3.602 30.3432 3.952 30.2632 4.404C30.1872 4.856 30.1492 5.186 30.1492 5.394C30.1492 5.598 30.1752 5.748 30.2272 5.844C30.2792 5.936 30.3672 6.016 30.4912 6.084C30.4392 6.088 30.3652 6.09 30.2692 6.09C30.0132 6.09 29.8232 6.038 29.6992 5.934C29.5792 5.826 29.5192 5.644 29.5192 5.388C29.5192 5.24 29.5592 4.942 29.6392 4.494C29.7192 4.042 29.7592 3.71 29.7592 3.498C29.7592 3.234 29.6672 3.102 29.4832 3.102C29.3752 3.102 29.2552 3.16 29.1232 3.276C28.9912 3.388 28.8632 3.542 28.7392 3.738C28.6192 3.93 28.5172 4.176 28.4332 4.476C28.3532 4.772 28.3132 5.066 28.3132 5.358C28.3132 5.646 28.3252 5.86 28.3492 6C28.2532 6.008 28.1992 6.012 28.1872 6.012C27.9992 6.012 27.8592 5.972 27.7672 5.892C27.6792 5.812 27.6352 5.688 27.6352 5.52C27.6352 5.348 27.6712 5.02 27.7432 4.536C27.9552 3.048 28.0612 1.918 28.0612 1.146C28.0612 0.798 28.0372 0.564 27.9892 0.444C28.2212 0.528 28.3832 0.652 28.4752 0.816C28.5712 0.98 28.6192 1.206 28.6192 1.494C28.6192 1.694 28.5792 2.114 28.4992 2.754C28.4232 3.394 28.3712 3.858 28.3432 4.146ZM33.7857 4.032C33.7857 3.64 33.7357 3.36 33.6357 3.192C33.5397 3.02 33.3997 2.934 33.2157 2.934C33.0357 2.934 32.8537 3.024 32.6697 3.204C32.4857 3.38 32.3397 3.6 32.2317 3.864C32.1277 4.124 32.0757 4.396 32.0757 4.68C32.0757 4.96 32.1297 5.204 32.2377 5.412C32.3457 5.616 32.5097 5.718 32.7297 5.718C33.0417 5.718 33.2957 5.534 33.4917 5.166C33.6877 4.798 33.7857 4.42 33.7857 4.032ZM32.0457 3.798C32.1977 3.366 32.4017 3.052 32.6577 2.856C32.9177 2.656 33.1797 2.556 33.4437 2.556C33.7117 2.556 33.9337 2.674 34.1097 2.91C34.2857 3.142 34.3737 3.458 34.3737 3.858C34.3737 4.298 34.2897 4.706 34.1217 5.082C33.9337 5.498 33.6617 5.788 33.3057 5.952C33.1137 6.044 32.9017 6.09 32.6697 6.09C32.3457 6.09 32.0617 5.956 31.8177 5.688C31.5737 5.416 31.4517 5.03 31.4517 4.53C31.4517 4.026 31.5597 3.59 31.7757 3.222C31.9917 2.854 32.2857 2.598 32.6577 2.454C32.7377 2.454 32.7777 2.494 32.7777 2.574C32.3817 2.834 32.1377 3.242 32.0457 3.798ZM37.5848 2.526C37.9288 2.526 38.1008 2.704 38.1008 3.06C38.1008 3.124 38.0628 3.406 37.9868 3.906C37.9108 4.402 37.8728 4.828 37.8728 5.184C37.8728 5.54 37.9108 5.854 37.9868 6.126C37.7428 6.03 37.5728 5.894 37.4768 5.718C37.3848 5.542 37.3388 5.324 37.3388 5.064C37.3388 4.964 37.3608 4.738 37.4048 4.386C37.2848 4.842 37.0988 5.226 36.8468 5.538C36.5948 5.846 36.3608 6 36.1448 6C35.6888 6 35.4608 5.668 35.4608 5.004C35.4608 4.784 35.4928 4.478 35.5568 4.086C35.6248 3.69 35.6588 3.39 35.6588 3.186C35.6588 2.982 35.6308 2.776 35.5748 2.568C35.8308 2.568 36.0228 2.612 36.1508 2.7C36.2788 2.788 36.3428 2.958 36.3428 3.21C36.3428 3.346 36.3008 3.626 36.2168 4.05C36.1328 4.474 36.0908 4.788 36.0908 4.992C36.0908 5.288 36.1828 5.436 36.3668 5.436C36.5188 5.436 36.6768 5.318 36.8408 5.082C37.0088 4.842 37.1488 4.532 37.2608 4.152C37.3728 3.772 37.4288 3.396 37.4288 3.024C37.4288 2.856 37.4168 2.694 37.3928 2.538C37.4808 2.53 37.5448 2.526 37.5848 2.526ZM41.1395 2.712C41.1395 2.88 41.1075 2.996 41.0435 3.06C40.9795 3.124 40.8855 3.156 40.7615 3.156H40.3295C40.3135 3.26 40.2715 3.508 40.2035 3.9C40.0675 4.644 39.9995 5.206 39.9995 5.586C39.9995 5.966 40.0275 6.218 40.0835 6.342C39.8555 6.258 39.6935 6.132 39.5975 5.964C39.5015 5.792 39.4535 5.584 39.4535 5.34C39.4535 5.096 39.4675 4.866 39.4955 4.65C39.5275 4.43 39.5715 4.174 39.6275 3.882C39.6835 3.59 39.7235 3.356 39.7475 3.18C39.5195 3.212 39.2955 3.276 39.0755 3.372C39.0675 3.308 39.0635 3.25 39.0635 3.198C39.0635 3.006 39.1275 2.878 39.2555 2.814C39.3835 2.746 39.5675 2.712 39.8075 2.712C39.8355 2.416 39.8495 2.196 39.8495 2.052C39.8495 1.904 39.8475 1.786 39.8435 1.698C39.8435 1.61 39.8435 1.544 39.8435 1.5C40.0275 1.528 40.1695 1.61 40.2695 1.746C40.3695 1.878 40.4195 2.06 40.4195 2.292C40.4195 2.412 40.4095 2.558 40.3895 2.73C40.7375 2.73 40.9835 2.672 41.1275 2.556C41.1355 2.612 41.1395 2.664 41.1395 2.712ZM46.7004 6C46.6844 6.012 46.6324 6.028 46.5444 6.048C46.4604 6.072 46.3804 6.084 46.3044 6.084C46.2324 6.084 46.1904 6.054 46.1784 5.994C46.1224 5.746 46.0564 5.358 45.9804 4.83C45.9044 4.302 45.8524 3.958 45.8244 3.798C45.7444 3.978 45.5744 4.332 45.3144 4.86C45.0584 5.388 44.8844 5.768 44.7924 6C44.7724 6.016 44.7284 6.034 44.6604 6.054C44.5964 6.074 44.5284 6.084 44.4564 6.084C44.3844 6.084 44.3424 6.054 44.3304 5.994C44.2704 5.738 44.2064 5.356 44.1384 4.848C44.0704 4.336 43.9984 3.89 43.9224 3.51C43.8464 3.126 43.7504 2.836 43.6344 2.64C43.7864 2.536 43.9124 2.484 44.0124 2.484C44.1164 2.484 44.2004 2.508 44.2644 2.556C44.3324 2.6 44.3864 2.672 44.4264 2.772C44.4704 2.868 44.5044 2.976 44.5284 3.096C44.5524 3.212 44.5724 3.362 44.5884 3.546C44.6044 3.726 44.6184 3.9 44.6304 4.068C44.6664 4.604 44.7044 5.038 44.7444 5.37C45.2044 4.302 45.5024 3.512 45.6384 3C45.5944 2.872 45.5424 2.752 45.4824 2.64C45.6344 2.536 45.7604 2.484 45.8604 2.484C45.9604 2.484 46.0424 2.508 46.1064 2.556C46.1704 2.6 46.2224 2.672 46.2624 2.772C46.3024 2.868 46.3344 2.976 46.3584 3.096C46.3864 3.212 46.4084 3.362 46.4244 3.546C46.4444 3.726 46.4604 3.9 46.4724 4.068C46.5044 4.536 46.5444 4.97 46.5924 5.37C46.7924 4.902 46.9444 4.544 47.0484 4.296C47.1524 4.044 47.2644 3.724 47.3844 3.336C47.5044 2.948 47.5664 2.638 47.5704 2.406C47.8184 2.526 47.9424 2.72 47.9424 2.988C47.9424 3.168 47.8704 3.414 47.7264 3.726C47.5864 4.038 47.4084 4.412 47.1924 4.848C46.9764 5.28 46.8124 5.664 46.7004 6ZM49.5358 3.654C49.4198 3.854 49.3298 4.06 49.2658 4.272C49.2058 4.48 49.1758 4.68 49.1758 4.872C49.1758 5.064 49.2178 5.228 49.3018 5.364C49.3898 5.496 49.5138 5.562 49.6738 5.562C49.8978 5.562 50.1078 5.44 50.3038 5.196C50.4998 4.948 50.6498 4.65 50.7538 4.302C50.8618 3.95 50.9158 3.626 50.9158 3.33C50.9158 3.03 50.9038 2.784 50.8798 2.592C50.9758 2.584 51.0358 2.58 51.0598 2.58C51.3998 2.58 51.5698 2.754 51.5698 3.102C51.5698 3.178 51.5218 3.488 51.4258 4.032C51.3298 4.572 51.2818 5.006 51.2818 5.334C51.2818 5.658 51.3438 5.946 51.4678 6.198C51.2158 6.146 51.0318 6.036 50.9158 5.868C50.8038 5.696 50.7478 5.45 50.7478 5.13C50.7478 5.074 50.7558 4.966 50.7718 4.806C50.6638 5.186 50.4738 5.492 50.2018 5.724C49.9298 5.956 49.6618 6.072 49.3978 6.072C49.1378 6.072 48.9278 5.974 48.7678 5.778C48.6078 5.578 48.5278 5.304 48.5278 4.956C48.5278 4.604 48.5918 4.262 48.7198 3.93C48.8518 3.594 49.0478 3.304 49.3078 3.06C49.5718 2.816 49.8658 2.694 50.1898 2.694C50.3298 2.694 50.4838 2.722 50.6518 2.778C50.4158 2.838 50.1998 2.948 50.0038 3.108C49.8078 3.268 49.6518 3.45 49.5358 3.654ZM53.4224 6.09C53.1944 6.01 53.0344 5.888 52.9424 5.724C52.8544 5.556 52.8104 5.354 52.8104 5.118C52.8104 4.882 52.8424 4.544 52.9064 4.104C52.9704 3.664 53.0024 3.322 53.0024 3.078C53.0024 2.834 52.9904 2.646 52.9664 2.514C53.0384 2.506 53.0964 2.502 53.1404 2.502C53.3204 2.502 53.4504 2.542 53.5304 2.622C53.6104 2.702 53.6504 2.834 53.6504 3.018C53.6504 3.078 53.6004 3.394 53.5004 3.966C53.4044 4.534 53.3544 5.004 53.3504 5.376C53.3504 5.744 53.3744 5.982 53.4224 6.09ZM53.5124 1.908C53.1764 1.908 53.0084 1.794 53.0084 1.566C53.0084 1.486 53.0384 1.374 53.0984 1.23C53.1864 1.214 53.2624 1.206 53.3264 1.206C53.6624 1.206 53.8304 1.32 53.8304 1.548C53.8304 1.628 53.8004 1.74 53.7404 1.884C53.6524 1.9 53.5764 1.908 53.5124 1.908ZM56.6821 2.712C56.6821 2.88 56.6501 2.996 56.5861 3.06C56.5221 3.124 56.4281 3.156 56.3041 3.156H55.8721C55.8561 3.26 55.8141 3.508 55.7461 3.9C55.6101 4.644 55.5421 5.206 55.5421 5.586C55.5421 5.966 55.5701 6.218 55.6261 6.342C55.3981 6.258 55.2361 6.132 55.1401 5.964C55.0441 5.792 54.9961 5.584 54.9961 5.34C54.9961 5.096 55.0101 4.866 55.0381 4.65C55.0701 4.43 55.1141 4.174 55.1701 3.882C55.2261 3.59 55.2661 3.356 55.2901 3.18C55.0621 3.212 54.8381 3.276 54.6181 3.372C54.6101 3.308 54.6061 3.25 54.6061 3.198C54.6061 3.006 54.6701 2.878 54.7981 2.814C54.9261 2.746 55.1101 2.712 55.3501 2.712C55.3781 2.416 55.3921 2.196 55.3921 2.052C55.3921 1.904 55.3901 1.786 55.3861 1.698C55.3861 1.61 55.3861 1.544 55.3861 1.5C55.5701 1.528 55.7121 1.61 55.8121 1.746C55.9121 1.878 55.9621 2.06 55.9621 2.292C55.9621 2.412 55.9521 2.558 55.9321 2.73C56.2801 2.73 56.5261 2.672 56.6701 2.556C56.6781 2.612 56.6821 2.664 56.6821 2.712Z" fill="#EB5204"/>
</svg>
